<svg width="477" height="100" viewBox="0 0 477 100" fill="none" xmlns="http://www.w3.org/2000/svg">
  <path d="M149.425 18.6719V76.8469H142.375V18.6719H149.425Z" fill="black"/>
  <path d="M217.722 33.1984C217.372 30.3234 215.997 28.0734 213.572 26.4984C211.147 24.8984 208.172 24.1234 204.647 24.1234C202.072 24.1234 199.822 24.5484 197.897 25.3734C195.972 26.1984 194.472 27.3484 193.397 28.8234C192.322 30.2734 191.797 31.9484 191.797 33.7984C191.797 35.3484 192.172 36.6734 192.922 37.7984C193.672 38.8984 194.622 39.8234 195.797 40.5484C196.972 41.2734 198.197 41.8734 199.497 42.3484C200.797 42.8234 201.972 43.1984 203.047 43.4734L208.947 45.0734C210.472 45.4734 212.147 46.0234 214.022 46.7234C215.897 47.4234 217.672 48.3734 219.397 49.5734C221.122 50.7734 222.522 52.3234 223.647 54.1984C224.772 56.0734 225.322 58.3734 225.322 61.0984C225.322 64.2484 224.497 67.0734 222.872 69.6234C221.247 72.1734 218.847 74.1734 215.722 75.6734C212.597 77.1734 208.797 77.9234 204.322 77.9234C200.147 77.9234 196.547 77.2484 193.522 75.8984C190.472 74.5484 188.097 72.6734 186.372 70.2734C184.647 67.8734 183.672 65.0734 183.422 61.8984H190.697C190.897 64.0984 191.622 65.8984 192.922 67.3484C194.222 68.7734 195.872 69.8484 197.872 70.5234C199.872 71.2234 202.022 71.5734 204.322 71.5734C207.022 71.5734 209.422 71.1234 211.572 70.2484C213.722 69.3734 215.397 68.1484 216.647 66.5484C217.897 64.9734 218.522 63.1234 218.522 60.9984C218.522 59.0734 217.972 57.4984 216.897 56.2734C215.822 55.0734 214.397 54.0734 212.647 53.3234C210.897 52.5734 208.972 51.8984 206.947 51.3234L199.797 49.2734C195.247 47.9734 191.647 46.0984 188.997 43.6734C186.347 41.2484 185.022 38.0734 185.022 34.1484C185.022 30.8984 185.897 28.0484 187.672 25.5984C189.447 23.1734 191.822 21.2734 194.822 19.9234C197.822 18.5734 201.172 17.8984 204.897 17.8984C208.622 17.8984 211.972 18.5734 214.897 19.8984C217.822 21.2234 220.122 23.0484 221.847 25.3734C223.572 27.6984 224.472 30.2984 224.572 33.2484H217.747L217.722 33.1984Z" fill="black"/>
  <path d="M291.152 33.1984C290.802 30.3234 289.427 28.0734 287.002 26.4984C284.577 24.8984 281.602 24.1234 278.077 24.1234C275.502 24.1234 273.252 24.5484 271.327 25.3734C269.402 26.1984 267.902 27.3484 266.827 28.8234C265.752 30.2734 265.227 31.9484 265.227 33.7984C265.227 35.3484 265.602 36.6734 266.352 37.7984C267.102 38.8984 268.052 39.8234 269.227 40.5484C270.402 41.2734 271.627 41.8734 272.927 42.3484C274.227 42.8234 275.402 43.1984 276.477 43.4734L282.377 45.0734C283.902 45.4734 285.577 46.0234 287.452 46.7234C289.327 47.4234 291.102 48.3734 292.827 49.5734C294.552 50.7734 295.952 52.3234 297.077 54.1984C298.202 56.0734 298.752 58.3734 298.752 61.0984C298.752 64.2484 297.927 67.0734 296.302 69.6234C294.677 72.1734 292.277 74.1734 289.152 75.6734C286.027 77.1734 282.227 77.9234 277.752 77.9234C273.577 77.9234 269.977 77.2484 266.952 75.8984C263.902 74.5484 261.527 72.6734 259.802 70.2734C258.077 67.8734 257.102 65.0734 256.852 61.8984H264.127C264.327 64.0984 265.052 65.8984 266.352 67.3484C267.652 68.7734 269.302 69.8484 271.302 70.5234C273.302 71.2234 275.452 71.5734 277.752 71.5734C280.452 71.5734 282.852 71.1234 285.002 70.2484C287.152 69.3734 288.827 68.1484 290.077 66.5484C291.327 64.9734 291.952 63.1234 291.952 60.9984C291.952 59.0734 291.402 57.4984 290.327 56.2734C289.252 55.0734 287.827 54.0734 286.077 53.3234C284.327 52.5734 282.402 51.8984 280.377 51.3234L273.227 49.2734C268.677 47.9734 265.077 46.0984 262.427 43.6734C259.777 41.2484 258.452 38.0734 258.452 34.1484C258.452 30.8984 259.327 28.0484 261.102 25.5984C262.877 23.1734 265.252 21.2734 268.252 19.9234C271.252 18.5734 274.602 17.8984 278.327 17.8984C282.052 17.8984 285.402 18.5734 288.327 19.8984C291.252 21.2234 293.552 23.0484 295.277 25.3734C297.002 27.6984 297.902 30.2984 298.002 33.2484H291.177L291.152 33.1984Z" fill="black"/>
  <path d="M339.8 18.6719V76.8469H332.75V18.6719H339.8Z" fill="black"/>
  <path d="M376.3 18.6719H384.7L404.475 66.9719H405.15L424.925 18.6719H433.325V76.8469H426.725V32.6469H426.15L407.975 76.8469H401.6L383.425 32.6469H382.85V76.8469H376.25V18.6719H376.3Z" fill="black"/>
  <path d="M476.878 18.6719V76.8469H469.828V18.6719H476.878Z" fill="black"/>
  <path d="M50 100C77.6142 100 100 77.6142 100 50C100 22.3858 77.6142 0 50 0C22.3858 0 0 22.3858 0 50C0 77.6142 22.3858 100 50 100Z" fill="#16700D"/>
  <path d="M65 18.125H57.5L35 76.875H42.5L65 18.125Z" fill="white"/>
</svg>
