<svg width="100%" height="50%" viewBox="0 0 564 59" version="1.1" xmlns="http://www.w3.org/2000/svg" xmlns:xlink="http://www.w3.org/1999/xlink" xml:space="preserve" xmlns:serif="http://www.serif.com/" style="fill-rule:evenodd;clip-rule:evenodd;stroke-linejoin:round;stroke-miterlimit:2;">
  <path class="wings" d="M401.304,2.426C400.626,1.222 399.383,0.499 397.913,0.499L301.042,0.499C299.459,0.499 296.973,0.499 294.373,3.269C293.582,4.112 293.016,5.075 292.677,5.798C291.886,7.363 291.321,8.447 288.608,8.447L274.478,8.447C271.879,8.447 271.201,7.363 270.409,5.798C269.958,4.955 269.505,4.112 268.714,3.269C266.114,0.499 263.627,0.499 262.045,0.499L165.287,0.499C163.704,0.499 162.461,1.222 161.896,2.426C161.218,3.63 161.331,5.195 162.122,6.52L163.817,9.651C164.722,11.337 165.965,11.578 166.87,11.819C167.661,11.939 168.226,12.059 168.791,13.264L170.374,16.154C171.616,18.562 172.973,18.803 173.99,19.044C174.782,19.164 175.573,19.285 176.59,21.211C177.608,23.138 179.077,26.028 182.807,27.232C183.146,27.353 218.865,38.432 218.979,38.432C222.709,39.756 223.726,41.201 224.857,43.008C225.534,44.091 227.456,46.982 231.977,48.306L266.34,58.181C270.07,59.264 272.331,57.338 273.462,56.254L279.679,49.992C280.582,49.149 281.035,48.788 281.6,48.788C282.165,48.788 282.618,49.149 283.521,49.992L289.738,56.254C290.868,57.217 293.13,59.144 296.86,58.181L331.223,48.306C335.857,46.982 337.666,44.091 338.343,43.008C339.474,41.201 340.491,39.636 344.221,38.432C344.221,38.432 379.94,27.353 380.393,27.232C384.009,26.028 385.592,23.138 386.61,21.211C387.627,19.285 388.305,19.164 389.096,19.044C390.114,18.803 391.584,18.562 392.826,16.154L394.409,13.264C395.088,12.059 395.539,11.939 396.33,11.819C397.235,11.578 398.478,11.337 399.383,9.651L401.078,6.52C401.869,5.075 401.982,3.63 401.304,2.426ZM296.746,55.531C294.147,55.531 293.242,53.123 292.565,51.196C291.773,49.029 287.591,34.819 286.348,30.966L291.66,30.966C294.486,36.144 299.685,45.296 301.947,49.149C302.398,49.872 303.529,51.919 305.563,53.243C297.425,55.531 297.651,55.531 296.746,55.531ZM257.637,53.123C259.671,51.798 260.915,49.751 261.253,49.029C263.515,45.296 268.714,36.023 271.539,30.845L276.852,30.845C275.722,34.699 271.427,48.908 270.635,51.076C269.958,53.003 269.053,55.411 266.454,55.411C265.549,55.531 265.775,55.531 257.637,53.123ZM271.427,54.929C271.879,54.327 272.218,53.484 272.783,52.039C273.574,49.872 277.982,35.06 279.226,30.966L284.087,30.966C285.33,35.18 289.738,49.872 290.53,52.039C290.982,53.484 291.434,54.327 291.886,54.929C291.773,54.809 291.547,54.688 291.434,54.568L285.217,48.306C284.2,47.343 283.183,46.379 281.713,46.379C280.244,46.379 279.113,47.343 278.209,48.306L271.992,54.568C271.766,54.688 271.539,54.809 271.427,54.929ZM309.293,51.919C306.355,51.919 304.772,49.51 303.868,47.945C301.947,44.694 297.538,36.866 294.26,30.966L300.138,30.966C303.868,35.18 311.667,43.971 314.719,47.343C315.171,47.824 316.189,48.908 317.658,49.872C310.424,51.798 310.424,51.919 309.293,51.919ZM245.655,49.751C247.125,48.908 248.141,47.824 248.594,47.222C251.645,43.971 259.558,35.06 263.175,30.845L269.053,30.845C265.775,36.746 261.367,44.573 259.445,47.824C258.541,49.39 256.958,51.798 254.019,51.798C252.889,51.919 252.776,51.798 245.655,49.751ZM321.276,48.427C319.014,48.427 317.319,46.741 316.189,45.536C313.476,42.646 307.033,35.421 303.077,30.845L309.52,30.845C313.589,34.096 322.971,41.442 326.701,44.091C327.379,44.573 328.736,45.416 330.318,46.018C321.953,48.427 322.179,48.427 321.276,48.427ZM232.995,46.018C234.577,45.536 235.934,44.573 236.612,44.091C240.342,41.442 249.724,34.096 253.793,30.845L260.236,30.845C256.28,35.421 249.837,42.646 247.125,45.536C245.994,46.741 244.411,48.427 242.038,48.427C241.133,48.427 241.247,48.427 232.995,46.018ZM336.422,41.683C335.404,43.369 334.613,44.212 332.805,44.212C331.109,44.212 329.414,43.369 327.945,42.285C324.892,39.997 317.772,34.578 313.25,30.966L320.936,30.966C330.318,35.903 334.274,38.191 336.874,39.034C337.327,39.154 337.778,39.275 338.231,39.395C337.439,39.997 336.987,40.84 336.422,41.683ZM225.082,39.275C225.534,39.154 225.987,39.154 226.439,38.913C229.152,38.07 233.108,35.903 242.377,30.845L250.063,30.845C245.428,34.458 238.42,39.877 235.369,42.165C234.012,43.248 232.204,44.091 230.508,44.091C228.7,44.091 227.908,43.248 226.891,41.563C226.326,40.84 225.761,39.997 225.082,39.275ZM215.248,34.699C215.926,34.578 216.717,34.337 217.509,34.096L229.265,30.966L237.629,30.966C229.038,35.542 226.213,37.107 224.065,37.107C222.822,36.987 221.804,36.746 215.248,34.699ZM339.248,36.987C337.101,36.987 334.274,35.421 325.684,30.845L334.048,30.845L345.804,33.976C346.595,34.217 347.386,34.337 348.064,34.578C341.396,36.746 340.378,36.987 339.248,36.987ZM362.081,30.243C355.186,32.411 354.056,32.892 352.134,32.892C350.778,32.892 349.082,32.651 346.256,31.808L336.987,29.28L336.987,25.787L362.081,30.243ZM226.213,25.787L226.213,29.28L216.944,31.808C214.118,32.531 212.422,32.892 211.066,32.892C209.144,32.892 208.014,32.411 201.119,30.243L226.213,25.787ZM335.179,10.855L335.179,28.918L228.021,28.918L228.021,10.855L335.179,10.855ZM185.859,25.547L226.213,20.73L226.213,23.499L201.571,27.835C198.293,28.437 196.258,28.678 194.111,28.075L185.859,25.547ZM369.316,28.075C367.054,28.678 365.02,28.437 361.855,27.835L337.213,23.499L337.213,20.73L377.566,25.547L369.316,28.075ZM384.462,20.007C384.123,20.609 383.784,21.211 383.444,21.693C382.088,23.74 381.184,23.62 376.889,23.138L336.987,18.321L336.987,15.672L382.993,18.562C383.332,18.562 384.236,18.683 385.253,18.683C385.027,19.044 384.688,19.526 384.462,20.007ZM177.947,18.683C178.851,18.562 179.868,18.562 180.207,18.562L226.213,15.672L226.213,18.321L186.311,23.138C182.016,23.62 181.112,23.74 179.756,21.693C179.416,21.211 179.077,20.609 178.738,20.007C178.512,19.526 178.286,19.044 177.947,18.683ZM170.486,11.216L226.213,11.216L226.213,13.384L178.173,16.395C174.329,16.635 173.651,16.756 172.295,14.468C171.843,13.625 171.051,12.059 171.051,12.059C170.825,11.698 170.6,11.457 170.486,11.216ZM392.261,11.939C392.261,11.939 391.357,13.504 391.018,14.347C389.661,16.635 388.983,16.635 385.141,16.274L337.101,13.264L337.101,11.096L392.826,11.096C392.6,11.457 392.488,11.698 392.261,11.939ZM399.157,5.195L397.913,7.483C397.009,8.928 396.67,8.928 393.731,8.928L293.695,8.928C294.712,7.604 295.051,6.279 296.181,5.075C298.103,3.028 299.685,3.028 301.155,3.028L398.027,3.028C398.704,3.028 399.157,3.269 399.383,3.63C399.496,3.991 399.496,4.593 399.157,5.195ZM163.931,3.63C164.157,3.269 164.608,3.028 165.287,3.028L262.158,3.028C263.627,3.028 265.323,3.028 267.131,5.075C268.262,6.279 268.601,7.604 269.618,8.928L169.582,8.928C166.643,8.928 166.305,8.928 165.4,7.483L164.157,5.195C163.817,4.593 163.704,3.991 163.931,3.63Z" style="fill-rule:nonzero;"></path>
  <path class="a" d="M231.412,25.186L235.595,14.709L236.725,14.709L240.908,25.186L238.76,25.186L237.855,22.536L234.126,22.536L233.108,25.186L231.412,25.186ZM234.351,21.332L237.178,21.332L235.708,17.358L234.351,21.332Z"></path>
  <path class="s" d="M241.247,24.704L241.134,22.777C242.038,23.62 243.056,24.102 244.073,24.102C244.638,24.102 245.09,23.981 245.429,23.74C245.994,23.259 245.994,22.416 245.542,21.934C245.203,21.452 244.525,21.212 243.056,20.489C241.699,19.767 241.021,18.803 241.021,17.479C241.021,16.636 241.359,15.913 241.925,15.311C243.168,14.107 245.316,14.588 245.542,14.588C245.994,14.709 246.333,14.829 246.672,14.95L246.786,16.756C246.333,16.395 245.881,16.154 245.542,16.034C244.186,15.552 242.717,15.913 242.717,17.117C242.717,17.719 243.056,18.081 243.847,18.562C245.542,19.526 246.446,19.887 247.012,20.73C247.802,21.693 247.802,23.74 246.56,24.704C245.881,25.186 245.09,25.547 243.959,25.547C242.717,25.426 241.699,24.945 241.247,24.704Z"></path>
  <path class="t" d="M255.489,16.154C253.907,15.913 253.003,15.913 252.55,15.913L252.55,25.065L250.629,25.065L250.629,15.913C249.837,15.913 248.933,16.034 247.69,16.154L247.802,14.588L255.376,14.588L255.489,16.154Z"></path>
  <path class="o" d="M260.463,25.426C257.524,25.426 255.489,23.138 255.489,20.007C255.489,16.756 257.524,14.588 260.463,14.588C263.402,14.588 265.436,16.756 265.436,20.007C265.436,23.138 263.402,25.426 260.463,25.426ZM260.463,24.102C262.046,24.102 263.402,22.777 263.402,19.887C263.402,19.646 263.402,17.358 262.046,16.154C261.593,15.793 261.141,15.672 260.463,15.672C258.428,15.672 257.524,17.719 257.524,19.887C257.637,22.777 258.993,24.102 260.463,24.102Z"></path>
  <path class="n" d="M267.019,25.186L267.019,14.709L268.036,14.709L273.914,21.814L273.914,14.709L275.271,14.709L275.271,25.186L274.253,25.186L268.375,18.081L268.375,25.186L267.019,25.186Z"></path>
  <path class="m" d="M280.596,25.065L281.714,14.709L282.731,14.709L286.235,22.055L289.626,14.709L290.643,14.709L291.773,25.186L289.739,25.186L289.174,18.683L286.46,24.704L285.556,24.704L282.731,18.683L282.165,25.065L280.596,25.065L280.583,25.186L280.583,25.065L280.596,25.065Z"></path>
  <path class="a2" d="M292.452,25.186L296.634,14.709L297.765,14.709L301.947,25.186L299.799,25.186L298.895,22.536L295.165,22.536L294.147,25.186L292.452,25.186ZM295.391,21.332L298.216,21.332L296.747,17.358L295.391,21.332Z"></path>
  <path class="r" d="M302.738,25.306L302.738,14.829C303.303,14.709 303.982,14.709 304.998,14.709C305.903,14.709 306.694,14.829 307.259,15.07C308.163,15.431 309.293,16.154 309.293,17.719C309.293,18.322 309.068,18.924 308.728,19.526C308.39,20.007 307.824,20.369 307.146,20.61L310.651,25.306L308.39,25.306L305.338,20.85L304.659,20.85L304.659,25.306L302.738,25.306ZM304.547,19.405C304.773,19.405 305.112,19.526 305.338,19.526C306.921,19.526 307.372,18.562 307.372,17.719C307.372,16.395 306.468,15.913 305.338,15.913L304.659,15.913L304.659,19.405L304.547,19.405Z"></path>
  <path class="t2" d="M317.772,16.154C316.189,15.913 315.285,15.913 314.833,15.913L314.833,25.065L312.911,25.065L312.911,15.913C312.12,15.913 311.216,16.034 309.972,16.154L310.085,14.588L317.659,14.588L317.772,16.154Z"></path>
  <rect class="i" x="319.015" y="14.709" width="1.921" height="10.477"></rect>
  <path class="n2" d="M322.858,25.186L322.858,14.709L323.876,14.709L329.754,21.814L329.754,14.709L331.11,14.709L331.11,25.186L330.092,25.186L324.215,18.081L324.215,25.186L322.858,25.186Z"></path>
</svg>